<?xml version="1.0" encoding="UTF-8"?>
<svg xmlns="http://www.w3.org/2000/svg" xmlns:xlink="http://www.w3.org/1999/xlink" width="48pt" height="48pt" viewBox="0 0 48 48" version="1.1">
<g id="surface7525">
<path style=" stroke:none;fill-rule:nonzero;fill:rgb(80%,80%,80%);fill-opacity:1;" d="M 26.523438 29.734375 L 31.484375 34.695312 C 30.726562 36.140625 30.648438 37.578125 31.445312 38.375 L 40.5 47.429688 C 41.640625 48.570312 44.125 47.945312 46.03125 46.03125 C 47.945312 44.117188 48.570312 41.640625 47.429688 40.5 L 38.382812 31.445312 C 37.578125 30.648438 36.140625 30.726562 34.695312 31.476562 L 29.734375 26.523438 Z M 17 0 C 7.609375 0 0 7.609375 0 17 C 0 26.390625 7.609375 34 17 34 C 26.390625 34 34 26.390625 34 17 C 34 7.609375 26.390625 0 17 0 Z M 17 30 C 9.820312 30 4 24.179688 4 17 C 4 9.820312 9.820312 4 17 4 C 24.179688 4 30 9.820312 30 17 C 30 24.179688 24.179688 30 17 30 Z M 17 30 "/>
</g>
</svg>
